<svg xmlns="http://www.w3.org/2000/svg"
 xmlns:xlink="http://www.w3.org/1999/xlink"
 width="46px" height="43px"  viewBox="0 0 46 43">
<path fill-rule="evenodd"  fill="#ffffff"
 d="M20.734924,13.223389 C22.569702,16.99939 24.145935,21.035767 25.489777,24.994385 C24.998718,25.020142 24.507751,25.046387 24.016815,25.046387 C21.458496,25.046387 18.900146,24.968506 16.341919,24.94226 C16.341919,24.94226 20.734924,13.223389 20.734924,13.223389 ZM1.9999084,41.999756 C3.6279297,41.999756 5.2301025,41.92151 6.858124,41.63513 C7.21994,41.58313 7.736725,41.42688 8.09845,41.42688 C11.096161,41.42688 14.119568,41.947266 17.117188,41.947266 C17.143005,41.713135 17.168854,41.47888 17.168854,41.244385 C17.168854,40.723877 17.168854,40.22888 17.143005,39.733887 C15.670074,39.52588 11.871399,39.447144 11.871399,37.442505 C11.871399,36.452515 14.481323,29.630005 15.153168,28.119507 C15.153168,28.119507 26.7818,28.17163 26.7818,28.17163 C27.19522,29.239136 30.528778,36.973755 30.528778,37.91089 C30.528778,38.874634 29.15921,39.05713 28.461517,39.213013 C28.461517,39.213013 25.076263,39.94226 25.076263,39.94226 C24.998718,40.619263 24.97287,41.296387 24.97287,41.97351 C28.358124,41.869385 31.743378,41.58313 35.12854,41.58313 C38.41043,41.58313 41.6922,41.999756 44.97409,41.999756 C44.97409,41.76526 44.99994,41.556885 44.99994,41.322266 C44.99994,40.827637 44.922394,40.333008 44.84488,39.838013 C43.63037,39.369263 41.25296,39.213013 40.400177,38.53589 C40.038452,38.249634 39.676636,37.468384 39.495728,37.051636 C38.203674,34.39563 37.299194,31.608887 36.136383,28.900757 C34.172394,24.31726 32.389404,19.656128 30.451263,15.046387 C30.451263,15.046387 25.153778,2.5465088 25.153778,2.5465088 C25.076263,2.36438 24.97287,2.1818848 24.869598,1.9993896 C24.869598,1.9993896 23.499939,1.9993896 23.499939,1.9993896 C23.499939,1.9993896 21.56186,1.9993896 21.56186,1.9993896 C21.56186,1.9993896 14.326233,20.85376 14.326233,20.85376 C14.326233,20.85376 8.201843,36.895386 8.201843,36.895386 C7.116577,39.708008 4.480713,39.187134 2.0516052,39.94226 C2.0516052,39.94226 1.9999084,41.999756 1.9999084,41.999756 Z"/>
</svg>